<svg width="225" height="55" viewBox="0 0 225 55" fill="none" xmlns="http://www.w3.org/2000/svg">
<path d="M61.07 12.67C61.34 11.86 61.91 11.455 62.78 11.455C63.68 11.455 64.28 11.875 64.58 12.715L74.93 41.785C74.96 41.875 74.975 41.98 74.975 42.1C74.975 42.7 74.675 43 74.075 43H73.535C73.145 43 72.86 42.805 72.68 42.415L62.87 14.47L53.015 42.415C52.835 42.805 52.55 43 52.16 43H51.62C51.02 43 50.72 42.7 50.72 42.1C50.72 41.98 50.735 41.875 50.765 41.785L61.07 12.67ZM58.955 29.14H66.74C66.98 29.14 67.19 29.23 67.37 29.41C67.55 29.56 67.64 29.77 67.64 30.04V30.445C67.64 30.715 67.55 30.94 67.37 31.12C67.19 31.27 66.98 31.345 66.74 31.345H58.955C58.385 31.345 58.1 31.045 58.1 30.445V30.04C58.1 29.44 58.385 29.14 58.955 29.14ZM98.0551 11.5H98.5051C98.7451 11.5 98.9551 11.59 99.1351 11.77C99.3151 11.95 99.4051 12.16 99.4051 12.4V31.705C99.4051 33.865 99.0451 35.74 98.3251 37.33C97.6051 38.89 96.6751 40.06 95.5351 40.84C93.4351 42.31 91.2901 43.045 89.1001 43.045H88.5601C86.3701 43.045 84.1951 42.31 82.0351 40.84C80.8951 40.06 79.9651 38.89 79.2451 37.33C78.5551 35.74 78.2101 33.865 78.2101 31.705V12.4C78.2101 12.16 78.2851 11.95 78.4351 11.77C78.6151 11.59 78.8401 11.5 79.1101 11.5H79.5601C79.8301 11.5 80.0401 11.59 80.1901 11.77C80.3701 11.95 80.4601 12.16 80.4601 12.4V31.705C80.4601 33.475 80.7451 35.005 81.3151 36.295C81.8851 37.555 82.6351 38.5 83.5651 39.13C85.1851 40.21 86.8801 40.78 88.6501 40.84H89.0551C90.7651 40.78 92.4451 40.195 94.0951 39.085C94.9951 38.485 95.7301 37.555 96.3001 36.295C96.8701 35.005 97.1551 33.475 97.1551 31.705V12.4C97.1551 12.16 97.2301 11.95 97.3801 11.77C97.5601 11.59 97.7851 11.5 98.0551 11.5ZM112.569 14.92H113.019C113.619 14.92 113.919 15.205 113.919 15.775V42.1C113.919 42.34 113.829 42.55 113.649 42.73C113.499 42.91 113.289 43 113.019 43H112.569C112.299 43 112.074 42.91 111.894 42.73C111.744 42.55 111.669 42.34 111.669 42.1V15.775C111.669 15.205 111.969 14.92 112.569 14.92ZM102.849 11.5H122.829C123.099 11.5 123.309 11.59 123.459 11.77C123.639 11.95 123.729 12.16 123.729 12.4V12.895C123.729 13.435 123.429 13.705 122.829 13.705H102.849C102.249 13.705 101.949 13.435 101.949 12.895V12.4C101.949 12.16 102.039 11.95 102.219 11.77C102.399 11.59 102.609 11.5 102.849 11.5ZM132.099 12.58C133.179 12.1 134.124 11.8 134.934 11.68C135.744 11.56 136.569 11.5 137.409 11.5C138.279 11.5 139.134 11.575 139.974 11.725C140.814 11.845 141.759 12.145 142.809 12.625C143.889 13.105 144.819 13.735 145.599 14.515C146.379 15.265 147.039 16.345 147.579 17.755C148.119 19.135 148.389 20.74 148.389 22.57V31.705C148.389 33.595 148.104 35.26 147.534 36.7C146.994 38.14 146.319 39.25 145.509 40.03C144.729 40.81 143.814 41.44 142.764 41.92C141.084 42.67 139.314 43.045 137.454 43.045C135.504 43.045 133.839 42.715 132.459 42.055C131.109 41.395 130.044 40.675 129.264 39.895C128.484 39.115 127.824 38.02 127.284 36.61C126.744 35.17 126.474 33.535 126.474 31.705V22.57C126.474 20.68 126.744 19.03 127.284 17.62C127.854 16.21 128.529 15.13 129.309 14.38C130.089 13.63 131.019 13.03 132.099 12.58ZM141.639 14.605C140.799 14.215 140.049 13.975 139.389 13.885C138.759 13.765 138.099 13.705 137.409 13.705C136.749 13.705 136.089 13.765 135.429 13.885C134.769 13.975 134.004 14.215 133.134 14.605C132.294 14.965 131.559 15.46 130.929 16.09C130.299 16.69 129.759 17.575 129.309 18.745C128.889 19.885 128.679 21.22 128.679 22.75V31.57C128.679 33.1 128.889 34.45 129.309 35.62C129.759 36.79 130.299 37.705 130.929 38.365C131.589 38.995 132.339 39.505 133.179 39.895C134.019 40.285 134.769 40.54 135.429 40.66C136.119 40.78 136.794 40.84 137.454 40.84C138.114 40.84 138.774 40.78 139.434 40.66C140.124 40.54 140.889 40.285 141.729 39.895C142.569 39.505 143.304 38.995 143.934 38.365C144.564 37.705 145.089 36.79 145.509 35.62C145.959 34.45 146.184 33.1 146.184 31.57V22.75C146.184 21.22 145.959 19.885 145.509 18.745C145.059 17.575 144.519 16.69 143.889 16.09C143.259 15.46 142.509 14.965 141.639 14.605ZM155.744 11.5H160.604C164.204 11.5 166.829 11.995 168.479 12.985C170.789 14.395 171.944 16.645 171.944 19.735C171.884 21.175 171.479 22.54 170.729 23.83C169.979 25.12 168.764 26.065 167.084 26.665C168.584 26.995 169.814 27.625 170.774 28.555C171.764 29.455 172.424 30.37 172.754 31.3C173.084 32.23 173.249 33.34 173.249 34.63C173.249 35.92 172.934 37.225 172.304 38.545C171.704 39.865 170.819 40.87 169.649 41.56C167.939 42.52 165.509 43 162.359 43H155.834C155.054 43 154.514 42.865 154.214 42.595C153.944 42.295 153.809 41.74 153.809 40.93V13.48C153.809 12.7 153.929 12.175 154.169 11.905C154.439 11.635 154.964 11.5 155.744 11.5ZM160.559 13.75H156.059V40.795H163.079C168.359 40.795 170.999 38.65 170.999 34.36C170.999 32.59 170.264 31.06 168.794 29.77C167.354 28.45 165.314 27.79 162.674 27.79H159.659C159.329 27.79 159.089 27.79 158.939 27.79C158.789 27.76 158.609 27.67 158.399 27.52C158.219 27.34 158.129 27.055 158.129 26.665C158.129 26.245 158.279 25.975 158.579 25.855C158.909 25.735 159.359 25.675 159.929 25.675H162.764C165.254 25.675 167.024 25.06 168.074 23.83C169.154 22.6 169.694 21.22 169.694 19.69C169.694 18.1 169.184 16.78 168.164 15.73C166.934 14.41 164.399 13.75 160.559 13.75ZM182.24 12.58C183.32 12.1 184.265 11.8 185.075 11.68C185.885 11.56 186.71 11.5 187.55 11.5C188.42 11.5 189.275 11.575 190.115 11.725C190.955 11.845 191.9 12.145 192.95 12.625C194.03 13.105 194.96 13.735 195.74 14.515C196.52 15.265 197.18 16.345 197.72 17.755C198.26 19.135 198.53 20.74 198.53 22.57V31.705C198.53 33.595 198.245 35.26 197.675 36.7C197.135 38.14 196.46 39.25 195.65 40.03C194.87 40.81 193.955 41.44 192.905 41.92C191.225 42.67 189.455 43.045 187.595 43.045C185.645 43.045 183.98 42.715 182.6 42.055C181.25 41.395 180.185 40.675 179.405 39.895C178.625 39.115 177.965 38.02 177.425 36.61C176.885 35.17 176.615 33.535 176.615 31.705V22.57C176.615 20.68 176.885 19.03 177.425 17.62C177.995 16.21 178.67 15.13 179.45 14.38C180.23 13.63 181.16 13.03 182.24 12.58ZM191.78 14.605C190.94 14.215 190.19 13.975 189.53 13.885C188.9 13.765 188.24 13.705 187.55 13.705C186.89 13.705 186.23 13.765 185.57 13.885C184.91 13.975 184.145 14.215 183.275 14.605C182.435 14.965 181.7 15.46 181.07 16.09C180.44 16.69 179.9 17.575 179.45 18.745C179.03 19.885 178.82 21.22 178.82 22.75V31.57C178.82 33.1 179.03 34.45 179.45 35.62C179.9 36.79 180.44 37.705 181.07 38.365C181.73 38.995 182.48 39.505 183.32 39.895C184.16 40.285 184.91 40.54 185.57 40.66C186.26 40.78 186.935 40.84 187.595 40.84C188.255 40.84 188.915 40.78 189.575 40.66C190.265 40.54 191.03 40.285 191.87 39.895C192.71 39.505 193.445 38.995 194.075 38.365C194.705 37.705 195.23 36.79 195.65 35.62C196.1 34.45 196.325 33.1 196.325 31.57V22.75C196.325 21.22 196.1 19.885 195.65 18.745C195.2 17.575 194.66 16.69 194.03 16.09C193.4 15.46 192.65 14.965 191.78 14.605ZM212.5 14.92H212.95C213.55 14.92 213.85 15.205 213.85 15.775V42.1C213.85 42.34 213.76 42.55 213.58 42.73C213.43 42.91 213.22 43 212.95 43H212.5C212.23 43 212.005 42.91 211.825 42.73C211.675 42.55 211.6 42.34 211.6 42.1V15.775C211.6 15.205 211.9 14.92 212.5 14.92ZM202.78 11.5H222.76C223.03 11.5 223.24 11.59 223.39 11.77C223.57 11.95 223.66 12.16 223.66 12.4V12.895C223.66 13.435 223.36 13.705 222.76 13.705H202.78C202.18 13.705 201.88 13.435 201.88 12.895V12.4C201.88 12.16 201.97 11.95 202.15 11.77C202.33 11.59 202.54 11.5 202.78 11.5Z" fill="#008B06"/>
<g clip-path="url(#clip0_95_59)">
<path fill-rule="evenodd" clip-rule="evenodd" d="M25.4873 46.363C24.8963 46.505 24.3052 46.6267 23.7141 46.7079C22.6339 46.8702 21.5333 46.9311 20.4326 46.992C19.2913 47.0325 18.1499 46.9311 17.0085 46.7891C15.8264 46.6267 14.6442 46.363 13.4825 45.9775C11.3831 45.3079 9.40609 44.2934 7.65326 42.9745C7.10295 42.5484 6.55264 42.102 6.0431 41.6151C4.9221 40.56 3.94378 39.3832 3.1285 38.1049C1.9056 36.1773 0.988417 34.0468 0.499254 31.8352C-0.0102908 29.583 -0.1122 27.0873 0.112 24.7742V24.7134C0.3362 28.0004 1.43682 31.1454 3.25079 33.6613C6.2673 37.8614 10.9755 40.5194 16.1525 40.9252C16.6212 40.9658 17.09 40.9861 17.5792 40.9861C19.6785 40.9861 21.7778 40.6209 23.7549 39.8904C23.7753 39.8904 23.816 39.9107 23.8568 39.9107C24.1217 39.9919 24.3052 40.1745 24.4275 40.418C24.8759 41.2904 25.3039 42.1629 25.7523 43.0151C25.7727 43.0354 25.7727 43.076 25.7931 43.0963C26.0173 43.5426 26.2415 43.989 26.4657 44.4354C26.6491 44.8006 26.8733 45.1658 26.7306 45.6122C26.5268 46.1601 25.9765 46.2412 25.4873 46.363Z" fill="#008100"/>
<path fill-rule="evenodd" clip-rule="evenodd" d="M0.132324 24.7134C0.132324 26.6409 1.68134 28.2033 3.59723 28.2642C5.37044 28.325 6.89908 27.0873 7.22518 25.3627C7.22518 25.4032 7.2048 25.4641 7.2048 25.525C6.93984 27.7975 7.26595 30.1511 8.18313 32.2613C9.07993 34.3512 10.5067 36.157 12.3206 37.5368C14.155 38.9165 16.3358 39.8295 18.5982 40.1339C20.0861 40.3368 21.6147 40.2759 23.0822 39.9716C23.3064 39.931 23.5102 39.8701 23.714 39.9107C21.737 40.6411 19.6581 41.0267 17.5384 41.0064C17.0696 41.0064 16.6008 40.9861 16.132 40.9455C10.9754 40.5397 6.24686 37.8817 3.23036 33.6816C1.45714 31.1454 0.356524 28.0004 0.132324 24.7134Z" fill="#00A24D"/>
<path fill-rule="evenodd" clip-rule="evenodd" d="M20.3511 7C19.7396 7 19.1281 7.02029 18.4963 7.08116C16.1728 7.26377 13.8696 7.81161 11.7296 8.76524C9.60985 9.71888 7.67358 11.0174 6.00228 12.6204C4.33097 14.2233 2.94501 16.1306 1.9463 18.2205C1.02912 20.1277 0.417669 22.177 0.152706 24.2872C0.132324 24.4292 0.132324 24.5916 0.132324 24.7336C0.132324 26.6612 1.68134 28.2235 3.59723 28.2844C5.37044 28.3452 6.89908 27.1075 7.22518 25.3829C7.24557 25.2814 7.24557 25.18 7.26595 25.0785L7.30671 24.8959C7.38824 23.1104 7.75511 21.3451 8.38695 19.6611C10.8735 13.0668 17.2123 8.37973 24.672 8.37973C25.0185 8.37973 25.3854 8.40002 25.7318 8.42031C26.9344 8.50147 28.0961 8.68408 29.2171 8.98843C29.4617 9.02901 29.6859 9.08989 29.9101 9.17105C28.4426 8.46089 26.914 7.91306 25.3242 7.56812C24.407 7.36522 23.4695 7.22319 22.5115 7.14203C21.8185 7.08116 21.1052 7.04058 20.4122 7.04058H20.3511V7Z" fill="#00A24D"/>
<path fill-rule="evenodd" clip-rule="evenodd" d="M32.1933 12.458C32.1933 12.9044 32.1118 13.3508 31.9487 13.7768C31.3984 15.1363 30.094 16.0088 28.6265 16.0088C28.0354 16.0088 27.4443 15.8667 26.9144 15.5827C25.2635 14.6696 23.4495 14.1015 21.554 13.9392C19.2101 13.716 16.8458 14.1624 14.7261 15.1566C13.6866 15.6435 12.7287 16.2522 11.8523 16.9827C11.037 17.6726 10.3033 18.4436 9.67142 19.2958C8.44851 20.9393 7.65362 22.8668 7.30713 24.8756C7.38866 23.09 7.75553 21.3248 8.38736 19.6407C10.8739 13.0464 17.2127 8.35938 24.6724 8.35938C25.0189 8.35938 25.3858 8.37967 25.7323 8.39996C26.9348 8.48112 28.0966 8.66373 29.2176 8.96808C29.4825 9.02895 29.7271 9.11011 29.9921 9.19127C30.1959 9.29272 30.3793 9.39417 30.5627 9.47533C31.5818 10.1246 32.1933 11.2406 32.1933 12.458Z" fill="#008B06"/>
<path fill-rule="evenodd" clip-rule="evenodd" d="M39.877 32.9716C39.5509 33.9861 39.1433 34.9803 38.6541 35.9542C38.5522 36.1571 38.4503 36.3397 38.3484 36.5426C38.2057 36.8064 38.0426 37.0905 37.8796 37.3543C37.6962 37.6383 37.4108 37.963 37.3089 38.2876L37.3293 38.247C37.4312 37.9832 37.5331 37.7195 37.6146 37.4354C38.1853 35.6905 38.4503 33.8846 38.4503 32.0585C38.4503 28.1831 37.1866 24.5917 35.0261 21.67C33.0287 18.9714 30.2772 16.8815 27.118 15.6844C27.0569 15.6438 26.9957 15.6032 26.9346 15.5829C27.4645 15.867 28.0352 16.009 28.6466 16.009C30.1141 16.009 31.4186 15.1162 31.9689 13.7771C32.1319 13.351 32.2135 12.9046 32.2135 12.4582C32.2135 11.2611 31.602 10.1452 30.5829 9.47559C30.8479 9.61762 31.0925 9.75965 31.337 9.90168C33.0695 10.9365 34.6389 12.235 35.9637 13.7568C37.4108 15.4206 38.593 17.3279 39.3878 19.3569C40.2643 21.5888 40.7127 23.983 40.7534 26.3773C40.8349 28.6092 40.5496 30.8411 39.877 32.9716Z" fill="#008B06"/>
<path fill-rule="evenodd" clip-rule="evenodd" d="M32.5191 45.6527C32.7229 46.0382 32.9063 46.6063 33.2936 46.8295C33.5789 46.9918 33.9254 46.9513 34.2312 46.9513H40.04C40.7329 46.931 41.2221 46.2005 40.896 45.5715C40.5291 44.8817 40.1623 44.1918 39.7954 43.5019L37.5534 39.3019C37.4515 39.099 37.3088 38.8961 37.268 38.6932C37.268 38.6932 37.1865 38.5714 37.2884 38.2062C37.3903 37.9424 37.4922 37.6787 37.5738 37.3946C38.1445 35.6496 38.4094 33.8438 38.4094 32.0177C38.4094 28.1423 37.1457 24.5509 34.9853 21.6291C32.9879 18.9306 30.2363 16.8407 27.0771 15.6436C27.2198 15.7247 27.3625 15.8059 27.4848 15.887C29.1153 16.9218 30.4809 18.2813 31.5204 19.9045C32.7433 21.8118 33.4566 24.0031 33.5789 26.2553C33.7012 28.2843 33.3344 30.3336 32.5395 32.18C32.2541 32.8293 31.9076 33.4786 31.5204 34.067C30.8682 35.1018 30.0529 36.0352 29.1357 36.8468C28.9319 37.0294 28.7281 37.1917 28.6262 37.4555C28.5446 37.6787 28.565 37.9221 28.6669 38.1453L32.5191 45.6527Z" fill="#FF7512"/>
</g>
<defs>
<clipPath id="clip0_95_59">
<rect width="41" height="40" fill="white" transform="translate(0 7)"/>
</clipPath>
</defs>
</svg>
